ModelForces
version=1
nRows=4
nColumns=157
inDegrees=no

This file contains the forces exerted on a model during a simulation.

A force is a generalized force, meaning that it can be either a force (N) or a torque (Nm).

Units are S.I. units (second, meters, Newtons, ...)
Angles are in degrees.

endheader
time	glut_med1_r	glut_med2_r	glut_med3_r	glut_min1_r	glut_min2_r	glut_min3_r	semimem_r	semiten_r	bifemlh_r	bifemsh_r	sar_r	add_long_r	add_brev_r	add_mag1_r	add_mag2_r	add_mag3_r	tfl_r	pect_r	grac_r	glut_max1_r	glut_max2_r	glut_max3_r	iliacus_r	psoas_r	quad_fem_r	gem_r	peri_r	rect_fem_r	vas_med_r	vas_int_r	vas_lat_r	med_gas_r	lat_gas_r	soleus_r	tib_post_r	flex_dig_r	flex_hal_r	tib_ant_r	per_brev_r	per_long_r	per_tert_r	ext_dig_r	ext_hal_r	glut_med1_l	glut_med2_l	glut_med3_l	glut_min1_l	glut_min2_l	glut_min3_l	semimem_l	semiten_l	bifemlh_l	bifemsh_l	sar_l	add_long_l	add_brev_l	add_mag1_l	add_mag2_l	add_mag3_l	tfl_l	pect_l	grac_l	glut_max1_l	glut_max2_l	glut_max3_l	iliacus_l	psoas_l	quad_fem_l	gem_l	peri_l	rect_fem_l	vas_med_l	vas_int_l	vas_lat_l	med_gas_l	lat_gas_l	soleus_l	tib_post_l	flex_dig_l	flex_hal_l	tib_ant_l	per_brev_l	per_long_l	per_tert_l	ext_dig_l	ext_hal_l	ercspn_r	ercspn_l	intobl_r	intobl_l	extobl_r	extobl_l	femur_lat_meniscii_r.femur_lat_r.force.X	femur_lat_meniscii_r.femur_lat_r.force.Y	femur_lat_meniscii_r.femur_lat_r.force.Z	femur_lat_meniscii_r.femur_lat_r.torque.X	femur_lat_meniscii_r.femur_lat_r.torque.Y	femur_lat_meniscii_r.femur_lat_r.torque.Z	femur_lat_meniscii_r.meniscus_lat_r.force.X	femur_lat_meniscii_r.meniscus_lat_r.force.Y	femur_lat_meniscii_r.meniscus_lat_r.force.Z	femur_lat_meniscii_r.meniscus_lat_r.torque.X	femur_lat_meniscii_r.meniscus_lat_r.torque.Y	femur_lat_meniscii_r.meniscus_lat_r.torque.Z	femur_med_meniscii_r.femur_med_r.force.X	femur_med_meniscii_r.femur_med_r.force.Y	femur_med_meniscii_r.femur_med_r.force.Z	femur_med_meniscii_r.femur_med_r.torque.X	femur_med_meniscii_r.femur_med_r.torque.Y	femur_med_meniscii_r.femur_med_r.torque.Z	femur_med_meniscii_r.meniscus_med_r.force.X	femur_med_meniscii_r.meniscus_med_r.force.Y	femur_med_meniscii_r.meniscus_med_r.force.Z	femur_med_meniscii_r.meniscus_med_r.torque.X	femur_med_meniscii_r.meniscus_med_r.torque.Y	femur_med_meniscii_r.meniscus_med_r.torque.Z	femur_med_tibia_r.tibia_upper_r.force.X	femur_med_tibia_r.tibia_upper_r.force.Y	femur_med_tibia_r.tibia_upper_r.force.Z	femur_med_tibia_r.tibia_upper_r.torque.X	femur_med_tibia_r.tibia_upper_r.torque.Y	femur_med_tibia_r.tibia_upper_r.torque.Z	femur_med_tibia_r.femur_med_r.force.X	femur_med_tibia_r.femur_med_r.force.Y	femur_med_tibia_r.femur_med_r.force.Z	femur_med_tibia_r.femur_med_r.torque.X	femur_med_tibia_r.femur_med_r.torque.Y	femur_med_tibia_r.femur_med_r.torque.Z	femur_lat_tibia_r.tibia_upper_r.force.X	femur_lat_tibia_r.tibia_upper_r.force.Y	femur_lat_tibia_r.tibia_upper_r.force.Z	femur_lat_tibia_r.tibia_upper_r.torque.X	femur_lat_tibia_r.tibia_upper_r.torque.Y	femur_lat_tibia_r.tibia_upper_r.torque.Z	femur_lat_tibia_r.femur_lat_r.force.X	femur_lat_tibia_r.femur_lat_r.force.Y	femur_lat_tibia_r.femur_lat_r.force.Z	femur_lat_tibia_r.femur_lat_r.torque.X	femur_lat_tibia_r.femur_lat_r.torque.Y	femur_lat_tibia_r.femur_lat_r.torque.Z	aACL_R	pACL_R	aPCL_R	pPCL_R	aMCL_R	mMCL_R	pMCL_R	aLCL_R	mLCL_R	pLCL_R	ground_prescribedForce_fx	ground_prescribedForce_fy	ground_prescribedForce_fz	ground_prescribedForce_px	ground_prescribedForce_py	ground_prescribedForce_pz
      0.72034529	      7.54847693	      5.66611578	      6.06510896	      2.65909793	      3.17912183	      3.19296392	      8.67869080	      4.07740287	      7.79848185	      7.20056440	      1.51074097	      5.61364445	      4.14131156	      2.91910919	      2.45388221	      3.98773507	      4.23980753	      2.23885126	      1.55352742	      3.65630782	      5.55635993	      4.14768738	     22.64826169	     12.96759609	      3.62690034	      2.85442303	      4.09056482	     10.67667085	      6.60508492	      6.75915290	      8.44786091	      5.06600639	      2.71731146	      8.78204625	     12.58708070	      2.74266152	      2.48088344	     17.27350443	      4.18129584	      8.54945342	     11.58041024	      9.39816360	      2.33092113	      7.54847693	      5.66611578	      6.06510896	      2.65909793	      3.17912183	      3.19296392	      8.74601891	      4.08351645	      7.68353995	      7.21647089	      1.51983545	      5.61364445	      4.14131156	      2.91910919	      2.45388221	      3.98773507	      4.09719312	      2.23885126	      1.55879850	      3.65630782	      5.55635993	      4.14768738	     22.64826169	     12.96759609	      3.62690034	      2.85442303	      4.09056482	     10.66810158	      6.59311475	      7.56283952	      8.13209318	     13.95597023	      6.48008110	     31.09097482	     42.36101550	      2.60240315	      2.84898332	      8.45249889	      4.33447022	     12.44784871	      2.00599978	      5.35344630	      1.69966534	     25.00811865	     25.00811865	      9.00074992	      9.00074992	     26.80528270	     26.80528270	     31.37088787	     60.94650875	      8.43325931	     -5.02469684	      0.77817305	     13.08319733	    -31.37088787	    -60.94650875	     -8.43325931	      2.05492439	     -0.92343105	     -0.98617015	     50.70048603	     86.94710368	      6.75446382	     -0.90846127	     -1.13879470	     21.47256978	    -50.70048603	    -86.94710368	     -6.75446382	     -1.29463337	      0.90475799	     -1.92301174	      0.00000000	      0.00000000	      0.00000000	      0.00000000	      0.00000000	      0.00000000	      0.00000000	      0.00000000	      0.00000000	      0.00000000	      0.00000000	      0.00000000	      0.00000000	      0.00000000	      0.00000000	      0.00000000	      0.00000000	      0.00000000	      0.00000000	      0.00000000	      0.00000000	      0.00000000	      0.00000000	      0.00000000	     19.74693455	     38.55006324	      0.00000000	      0.00000000	      0.00000000	      4.10067867	     16.67565135	      3.25268264	      0.00000000	      5.52411632	    110.00000000	      0.00000000	      0.00000000	      0.03000000	     -0.03000000	      0.00000000
      0.72375701	      7.54834988	      5.66602823	      6.06501409	      2.65905858	      3.17907927	      3.19291029	      8.70209370	      4.08827074	      7.80589328	      7.27791802	      1.54869318	      5.61355670	      4.14125084	      2.91906442	      2.45384367	      3.98766569	      4.23975527	      2.23881793	      1.56609120	      3.65625138	      5.55627389	      4.14762198	     22.64810297	     12.96741767	      3.62684551	      2.85439739	      4.09046165	     10.69876404	      6.65831458	      6.80986850	      8.49855223	      5.11388403	      2.73929294	      8.83291870	     12.60427445	      2.76329452	      2.45184229	     17.26230911	      4.18421663	      8.57243447	     11.57415098	      9.39031702	      2.35846643	      7.54834988	      5.66602823	      6.06501409	      2.65905858	      3.17907927	      3.19291029	      8.74583358	      4.08344838	      7.68338588	      7.21636173	      1.51981306	      5.61355670	      4.14125084	      2.91906442	      2.45384367	      3.98766569	      4.09715022	      2.23881793	      1.55877514	      3.65625138	      5.55627389	      4.14762198	     22.64810297	     12.96741767	      3.62684551	      2.85439739	      4.09046165	     10.66789193	      6.59301056	      7.56271770	      8.13196286	     13.95548411	      6.47985494	     31.09019308	     42.36071074	      2.59973789	      2.84771762	      8.45234119	      4.33437549	     12.44761459	      2.00597209	      5.35469514	      1.70000990	     25.00774778	     25.00774778	      9.00060455	      9.00060455	     26.80515213	     26.80515213	     32.08128406	     62.30722589	      8.61795744	     -5.13546479	      0.79584205	     13.37937934	    -32.08128406	    -62.30722589	     -8.61795744	      2.10072606	     -0.94436798	     -1.00840232	     51.61295119	     88.34042018	      6.83615355	     -0.91228048	     -1.15875091	     21.85647168	    -51.61295119	    -88.34042018	     -6.83615355	     -1.31594150	      0.92053672	     -1.95506754	      0.00000000	      0.00000000	      0.00000000	      0.00000000	      0.00000000	      0.00000000	      0.00000000	      0.00000000	      0.00000000	      0.00000000	      0.00000000	      0.00000000	      0.00000000	      0.00000000	      0.00000000	      0.00000000	      0.00000000	      0.00000000	      0.00000000	      0.00000000	      0.00000000	      0.00000000	      0.00000000	      0.00000000	     19.43508691	     38.24340106	      0.00000000	      0.00000000	      0.00000000	      3.18490572	     15.78457663	      1.85191090	      0.00000000	      4.12686545	    110.00000000	      0.00000000	      0.00000000	      0.03000000	     -0.03000000	      0.00000000
      0.72716873	      7.54822830	      5.66594445	      6.06492329	      2.65902093	      3.17903855	      3.19285896	      8.69060765	      4.08033972	      7.78291352	      7.18679191	      1.51037711	      5.61347272	      4.14119273	      2.91902157	      2.45380680	      3.98759929	      4.23165600	      2.23878602	      1.55435340	      3.65619736	      5.55619155	      4.14755938	     22.64795108	     12.96724691	      3.62679304	      2.85437284	      4.09036290	     10.67909028	      6.61613653	      6.76158150	      8.44219210	      5.11564636	      2.74085297	      8.84044321	     12.63080563	      2.78142846	      2.42348437	     17.26398971	      4.18193440	      8.58818542	     11.58381986	      9.40418559	      2.38766943	      7.54822830	      5.66594445	      6.06492329	      2.65902093	      3.17903855	      3.19285896	      8.74565621	      4.08338323	      7.68323842	      7.21625726	      1.51979164	      5.61347272	      4.14119273	      2.91902157	      2.45380680	      3.98759929	      4.09710917	      2.23878602	      1.55875279	      3.65619736	      5.55619155	      4.14755938	     22.64795108	     12.96724691	      3.62679304	      2.85437284	      4.09036290	     10.66769128	      6.59291085	      7.56260112	      8.13183815	     13.95501867	      6.47963840	     31.08944491	     42.36041906	      2.59705778	      2.84645045	      8.45219027	      4.33428483	     12.44739051	      2.00594560	      5.35595454	      1.70035672	     25.00739286	     25.00739286	      9.00046543	      9.00046543	     26.80502717	     26.80502717	     31.45865646	     61.14245650	      8.48485612	     -5.05104986	      0.78035033	     13.11976892	    -31.45865646	    -61.14245650	     -8.48485612	      2.06226502	     -0.92600532	     -0.98887855	     50.49122256	     86.53610826	      6.74448785	     -0.91336094	     -1.13414524	     21.38346114	    -50.49122256	    -86.53610826	     -6.74448785	     -1.28782044	      0.90109432	     -1.91457608	      0.00000000	      0.00000000	      0.00000000	      0.00000000	      0.00000000	      0.00000000	      0.00000000	      0.00000000	      0.00000000	      0.00000000	      0.00000000	      0.00000000	      0.00000000	      0.00000000	      0.00000000	      0.00000000	      0.00000000	      0.00000000	      0.00000000	      0.00000000	      0.00000000	      0.00000000	      0.00000000	      0.00000000	     19.75895474	     38.53989933	      0.00000000	      0.00000000	      0.00000000	      4.27236663	     16.84658846	      3.28615090	      0.00000000	      5.55178799	    110.00000000	      0.00000000	      0.00000000	      0.03000000	     -0.03000000	      0.00000000
      0.73058046	      7.54811194	      5.66586426	      6.06483639	      2.65898489	      3.17899958	      3.19280984	      8.71639859	      4.09293338	      7.79303836	      7.28370854	      1.55140498	      5.61339236	      4.14113711	      2.91898057	      2.45377151	      3.98753574	      4.23233510	      2.23875549	      1.56839651	      3.65614566	      5.55611275	      4.14749948	     22.64780571	     12.96708350	      3.62674282	      2.85434935	      4.09026839	     10.70463040	      6.67728509	      6.82090402	      8.50279949	      5.17254850	      2.76903890	      8.90489060	     12.68079420	      2.79921995	      2.39917764	     17.25249287	      4.17557686	      8.59897571	     11.56813357	      9.42876898	      2.41435578	      7.54811194	      5.66586426	      6.06483639	      2.65898489	      3.17899958	      3.19280984	      8.74548647	      4.08332089	      7.68309731	      7.21615728	      1.51977114	      5.61339236	      4.14113711	      2.91898057	      2.45377151	      3.98753574	      4.09706988	      2.23875549	      1.55873139	      3.65614566	      5.55611275	      4.14749948	     22.64780571	     12.96708350	      3.62674282	      2.85434935	      4.09026839	     10.66749926	      6.59281543	      7.56248954	      8.13171879	     13.95457303	      6.47943107	     31.08872887	     42.36013991	      2.59436254	      2.84518173	      8.45204584	      4.33419806	     12.44717602	      2.00592024	      5.35722431	      1.70070573	     25.00705319	     25.00705319	      9.00033229	      9.00033229	     26.80490758	     26.80490758	     32.33809453	     62.83528715	      8.71725920	     -5.18994540	      0.80222270	     13.48643268	    -32.33809453	    -62.83528715	     -8.71725920	      2.11933244	     -0.95192819	     -1.01639401	     51.54664940	     88.11486334	      6.83043391	     -0.91498470	     -1.15711469	     21.82701517	    -51.54664940	    -88.11486334	     -6.83043391	     -1.31211452	      0.91922849	     -1.95114571	      0.00000000	      0.00000000	      0.00000000	      0.00000000	      0.00000000	      0.00000000	      0.00000000	      0.00000000	      0.00000000	      0.00000000	      0.00000000	      0.00000000	      0.00000000	      0.00000000	      0.00000000	      0.00000000	      0.00000000	      0.00000000	      0.00000000	      0.00000000	      0.00000000	      0.00000000	      0.00000000	      0.00000000	     19.38827558	     38.17471482	      0.00000000	      0.00000000	      0.00000000	      3.16267941	     15.76853710	      1.62997044	      0.00000000	      3.89972144	    110.00000000	      0.00000000	      0.00000000	      0.03000000	     -0.03000000	      0.00000000
